<svg xmlns="http://www.w3.org/2000/svg" width="246" height="40" fill="none"><path fill="#D3A0FA" d="M18.356 5.822V0H0v40h18.356v-5.822a14.178 14.178 0 0 1 0-28.356m.001 0v28.356a14.178 14.178 0 0 0 0-28.356"/><path fill="#E4E4EF" d="M54.192 28.788q-2.52 0-4.344-1.08a7.4 7.4 0 0 1-2.808-3.048q-.984-1.968-.984-4.536 0-2.592.984-4.536.984-1.968 2.808-3.072t4.344-1.104q3 0 4.896 1.488 1.92 1.464 2.424 4.152h-3.168q-.336-1.416-1.392-2.232-1.032-.816-2.784-.816-1.608 0-2.76.744-1.152.72-1.776 2.112-.624 1.368-.624 3.264t.624 3.264q.624 1.344 1.776 2.088 1.152.72 2.76.72 1.752 0 2.784-.744 1.056-.768 1.368-2.112h3.192q-.48 2.544-2.4 4.008-1.92 1.44-4.92 1.44m8.993-.288V11.22h2.88v7.248q.6-1.008 1.632-1.584t2.352-.576q1.44 0 2.472.624 1.032.6 1.584 1.824.552 1.2.552 2.976V28.5h-2.856v-6.48q0-1.584-.648-2.424-.624-.864-1.968-.864-.888 0-1.608.432t-1.128 1.248q-.384.792-.384 1.944V28.5zm17.47.288q-1.512 0-2.496-.48-.984-.504-1.464-1.32a3.6 3.6 0 0 1-.48-1.824q0-1.128.576-1.944.6-.84 1.752-1.296 1.152-.48 2.856-.48h3.048q0-.936-.288-1.536a1.85 1.85 0 0 0-.84-.936q-.552-.312-1.392-.312-.984 0-1.728.48-.72.456-.864 1.368h-2.832q.12-1.296.864-2.232t1.944-1.44q1.2-.528 2.64-.528 1.68 0 2.88.6 1.224.576 1.848 1.656.648 1.08.648 2.616v7.32H84.88l-.288-1.92q-.24.48-.624.888-.36.384-.84.696-.48.288-1.104.456-.6.168-1.368.168Zm.648-2.28a3.1 3.1 0 0 0 1.248-.24 2.8 2.8 0 0 0 .936-.72 3.2 3.2 0 0 0 .624-1.032 4.4 4.4 0 0 0 .264-1.2v-.024h-2.664q-.864 0-1.416.216t-.816.6q-.24.36-.24.84 0 .504.24.864.264.336.72.528.456.168 1.104.168M89.31 28.5V16.596h2.568l.264 2.256q.432-.792 1.056-1.344.624-.576 1.464-.888a5.3 5.3 0 0 1 1.872-.312v3.024h-.792q-.768 0-1.416.192a2.8 2.8 0 0 0-1.128.576q-.48.408-.744 1.128-.264.696-.264 1.728V28.5zm12.408.288q-1.512 0-2.496-.48-.984-.504-1.464-1.32a3.6 3.6 0 0 1-.48-1.824q0-1.128.576-1.944.6-.84 1.752-1.296 1.152-.48 2.856-.48h3.048q0-.936-.288-1.536a1.85 1.85 0 0 0-.84-.936q-.552-.312-1.392-.312-.984 0-1.728.48-.72.456-.864 1.368h-2.832q.12-1.296.864-2.232t1.944-1.44q1.2-.528 2.64-.528 1.68 0 2.88.6 1.224.576 1.848 1.656.648 1.08.648 2.616v7.32h-2.448l-.288-1.92q-.24.48-.624.888-.36.384-.84.696-.48.288-1.104.456-.6.168-1.368.168m.648-2.28a3.1 3.1 0 0 0 1.248-.24 2.8 2.8 0 0 0 .936-.72 3.2 3.2 0 0 0 .624-1.032 4.4 4.4 0 0 0 .264-1.2v-.024h-2.664q-.864 0-1.416.216t-.816.6q-.24.36-.24.84 0 .504.24.864.264.336.72.528.456.168 1.104.168m13.767 2.28q-1.8 0-3.192-.792a5.73 5.73 0 0 1-2.184-2.184q-.792-1.416-.792-3.264t.792-3.24a5.73 5.73 0 0 1 2.184-2.184q1.392-.816 3.192-.816 2.256 0 3.792 1.176t1.968 3.216h-3.048q-.216-.912-.96-1.416t-1.776-.504q-.888 0-1.608.432t-1.176 1.296q-.432.84-.432 2.04 0 .888.24 1.608.264.696.696 1.2.456.48 1.032.744.6.24 1.248.24.696 0 1.248-.216.552-.24.936-.672.408-.432.552-1.056h3.048q-.432 1.992-1.968 3.192t-3.792 1.2m12.486-.288q-1.2 0-2.112-.384a2.88 2.88 0 0 1-1.416-1.272q-.48-.888-.48-2.4v-5.448h-2.04v-2.4h2.04l.336-3.12h2.544v3.12h3.264v2.4h-3.264v5.448q0 .912.384 1.272.384.336 1.344.336h1.44V28.5zm9.184.288q-1.8 0-3.192-.768a5.83 5.83 0 0 1-2.16-2.16q-.768-1.392-.768-3.24 0-1.872.768-3.288a5.56 5.56 0 0 1 2.136-2.208q1.392-.816 3.216-.816 1.776 0 3.096.792 1.32.768 2.064 2.064t.744 2.928q0 .24-.024.528 0 .288-.024.624h-9.912v-1.848h7.056q-.072-1.272-.912-1.992-.84-.744-2.088-.744-.888 0-1.656.408-.744.384-1.2 1.176-.432.768-.432 1.968v.696q0 1.104.432 1.896.432.768 1.176 1.2a3.4 3.4 0 0 0 1.656.408q.984 0 1.656-.432a2.83 2.83 0 0 0 1.008-1.2h2.904a5.2 5.2 0 0 1-1.104 2.064 5.6 5.6 0 0 1-1.896 1.416q-1.128.528-2.544.528m7.515-.288V16.596h2.568l.264 2.256q.432-.792 1.056-1.344.624-.576 1.464-.888a5.3 5.3 0 0 1 1.872-.312v3.024h-.792q-.768 0-1.416.192a2.8 2.8 0 0 0-1.128.576q-.48.408-.744 1.128-.264.696-.264 1.728V28.5zm20.819.288q-2.52 0-4.344-1.08a7.4 7.4 0 0 1-2.808-3.048q-.984-1.968-.984-4.536 0-2.592.984-4.536.984-1.968 2.808-3.072t4.344-1.104q3 0 4.896 1.488 1.92 1.464 2.424 4.152h-3.168q-.336-1.416-1.392-2.232-1.032-.816-2.784-.816-1.608 0-2.76.744-1.152.72-1.776 2.112-.624 1.368-.624 3.264t.624 3.264q.624 1.344 1.776 2.088 1.152.72 2.76.72 1.752 0 2.784-.744 1.056-.768 1.368-2.112h3.192q-.48 2.544-2.4 4.008-1.92 1.44-4.92 1.44m14.633 0q-1.704 0-3.096-.792a5.8 5.8 0 0 1-2.16-2.184q-.792-1.416-.792-3.264t.792-3.264a5.73 5.73 0 0 1 2.184-2.184q1.392-.792 3.096-.792 1.728 0 3.096.792a5.56 5.56 0 0 1 2.16 2.184q.816 1.392.816 3.264 0 1.848-.816 3.264a5.73 5.73 0 0 1-2.184 2.184q-1.368.792-3.096.792m0-2.472q.864 0 1.56-.408.72-.432 1.152-1.272t.432-2.088-.432-2.088-1.152-1.248a2.86 2.86 0 0 0-1.536-.432q-.816 0-1.536.432-.72.408-1.176 1.248-.432.84-.432 2.088 0 1.224.432 2.088.456.84 1.152 1.272.72.408 1.536.408m12.261 2.472q-1.44 0-2.496-.6-1.032-.624-1.584-1.824-.552-1.224-.552-3v-6.768h2.88v6.48q0 1.608.648 2.448t1.992.84q.888 0 1.584-.432a2.9 2.9 0 0 0 1.08-1.224q.408-.816.408-1.968v-6.144h2.88V28.5h-2.544l-.216-2.04a4.3 4.3 0 0 1-1.608 1.704q-1.056.624-2.472.624m8.998-.288V16.596h2.544l.216 2.04a4.4 4.4 0 0 1 1.608-1.68q1.056-.648 2.448-.648 1.488 0 2.52.624 1.032.6 1.584 1.824.552 1.2.552 2.976V28.5h-2.856v-6.48q0-1.584-.672-2.424-.648-.864-2.016-.864-.888 0-1.584.432-.672.432-1.08 1.248-.384.792-.384 1.944V28.5zm18.598 0q-1.2 0-2.112-.384a2.88 2.88 0 0 1-1.416-1.272q-.48-.888-.48-2.4v-5.448h-2.04v-2.4h2.04l.336-3.12h2.544v3.12h3.264v2.4h-3.264v5.448q0 .912.384 1.272.384.336 1.344.336h1.44V28.5zm9.184.288q-1.8 0-3.192-.768a5.83 5.83 0 0 1-2.16-2.16q-.768-1.392-.768-3.24 0-1.872.768-3.288a5.56 5.56 0 0 1 2.136-2.208q1.392-.816 3.216-.816 1.776 0 3.096.792 1.32.768 2.064 2.064t.744 2.928q0 .24-.024.528 0 .288-.024.624h-9.912v-1.848h7.056q-.072-1.272-.912-1.992-.84-.744-2.088-.744-.888 0-1.656.408-.744.384-1.2 1.176-.432.768-.432 1.968v.696q0 1.104.432 1.896.432.768 1.176 1.2a3.4 3.4 0 0 0 1.656.408q.984 0 1.656-.432a2.83 2.83 0 0 0 1.008-1.2h2.904a5.2 5.2 0 0 1-1.104 2.064 5.6 5.6 0 0 1-1.896 1.416q-1.128.528-2.544.528m7.515-.288V16.596h2.568l.264 2.256q.432-.792 1.056-1.344.624-.576 1.464-.888a5.3 5.3 0 0 1 1.872-.312v3.024h-.792q-.768 0-1.416.192a2.8 2.8 0 0 0-1.128.576q-.48.408-.744 1.128-.264.696-.264 1.728V28.5z"/></svg>