<svg xmlns="http://www.w3.org/2000/svg" width="251" height="40" fill="none"><path fill="#C27CF8" d="M18.356 5.822V0H0v40h18.356v-5.822a14.178 14.178 0 0 1 0-28.356m.001 0v28.356a14.178 14.178 0 0 0 0-28.356"/><path fill="#12131A" d="M54.114 28.788q-2.52 0-4.344-1.08-1.8-1.104-2.785-3.048-.96-1.968-.96-4.536t.96-4.536q.984-1.968 2.785-3.072 1.823-1.104 4.343-1.104 3.049 0 4.992 1.512 1.945 1.512 2.425 4.272H58q-.311-1.344-1.32-2.088-.984-.768-2.591-.768-1.49 0-2.569.72-1.055.696-1.632 1.992-.576 1.272-.576 3.072 0 1.776.576 3.072t1.633 1.992q1.08.696 2.568.696 1.607 0 2.591-.696.985-.72 1.297-1.992h3.551q-.48 2.616-2.424 4.104t-4.991 1.488Zm9.11-.288V11.22h3.24v6.984a4.35 4.35 0 0 1 1.584-1.512q1.008-.576 2.328-.576 1.512 0 2.544.648 1.032.624 1.56 1.824t.528 2.976V28.5h-3.216v-6.648q0-1.44-.6-2.208-.6-.792-1.896-.792-.792 0-1.44.384t-1.032 1.128q-.36.72-.36 1.728V28.5zm17.916.288q-1.512 0-2.496-.48-.984-.504-1.464-1.32a3.8 3.8 0 0 1-.456-1.848q0-1.104.552-1.944.576-.84 1.704-1.32 1.152-.48 2.88-.48h3q0-.888-.24-1.464-.24-.6-.744-.888t-1.344-.288q-.912 0-1.56.408-.624.384-.768 1.2H77.06q.12-1.296.84-2.232.744-.96 1.944-1.488 1.224-.528 2.712-.528 1.704 0 2.952.576t1.92 1.656.672 2.664V28.5h-2.736l-.36-1.848q-.264.48-.624.864c-.36.384-.52.48-.84.672q-.48.288-1.08.432-.6.168-1.32.168m.768-2.496q.624 0 1.104-.216a2.9 2.9 0 0 0 .864-.624q.36-.408.552-.912.216-.528.288-1.128v-.024h-2.472q-.744 0-1.224.192-.456.168-.672.504a1.4 1.4 0 0 0-.216.768q0 .48.216.792t.624.48.936.168m8.215 2.208V16.404h2.88l.312 2.232a4.7 4.7 0 0 1 1.08-1.344 5.2 5.2 0 0 1 1.512-.864 5.6 5.6 0 0 1 1.896-.312v3.432h-1.104q-.72 0-1.344.168-.6.168-1.056.552-.456.36-.696 1.008t-.24 1.632V28.5zm12.9.288q-1.512 0-2.496-.48-.984-.504-1.464-1.32a3.8 3.8 0 0 1-.456-1.848q0-1.104.552-1.944.576-.84 1.704-1.32 1.152-.48 2.88-.48h3q0-.888-.24-1.464-.24-.6-.744-.888t-1.344-.288q-.912 0-1.56.408-.624.384-.768 1.2h-3.144q.12-1.296.84-2.232.744-.96 1.944-1.488 1.224-.528 2.712-.528 1.704 0 2.952.576t1.92 1.656.672 2.664V28.5h-2.736l-.36-1.848q-.264.48-.624.864c-.36.384-.52.48-.84.672q-.48.288-1.08.432-.6.168-1.32.168m.768-2.496q.624 0 1.104-.216a2.9 2.9 0 0 0 .864-.624q.36-.408.552-.912.216-.528.288-1.128v-.024h-2.472q-.744 0-1.224.192-.456.168-.672.504a1.4 1.4 0 0 0-.216.768q0 .48.216.792t.624.48.936.168m14.07 2.496q-1.824 0-3.24-.816a5.8 5.8 0 0 1-2.208-2.232q-.792-1.416-.792-3.24 0-1.872.792-3.288a5.76 5.76 0 0 1 2.208-2.256q1.416-.84 3.24-.84 2.328 0 3.912 1.224t2.016 3.36h-3.432q-.216-.84-.912-1.32-.672-.48-1.608-.48-.84 0-1.512.432-.648.408-1.032 1.224-.36.792-.36 1.896 0 .84.216 1.512.216.648.6 1.128.384.456.912.696.552.24 1.176.24t1.128-.216a2.5 2.5 0 0 0 .888-.6q.36-.408.504-.984h3.432q-.432 2.088-2.04 3.336-1.584 1.224-3.888 1.224m13.03-.288q-1.272 0-2.232-.384a3.08 3.08 0 0 1-1.464-1.32q-.528-.936-.528-2.544v-5.136h-2.064v-2.712h2.064l.36-3.288h2.88v3.288h3.192v2.712h-3.192V24.3q0 .816.36 1.128t1.224.312h1.584v2.76zm9.438.288q-1.824 0-3.24-.768a5.73 5.73 0 0 1-2.184-2.184q-.768-1.416-.768-3.264 0-1.896.768-3.336a5.76 5.76 0 0 1 2.184-2.28q1.392-.84 3.24-.84 1.8 0 3.144.792a5.6 5.6 0 0 1 2.088 2.136q.744 1.344.744 3.048v.552q0 .288-.048.6h-9.816v-1.968h6.6q-.072-1.176-.84-1.848-.744-.672-1.872-.672-.816 0-1.512.384-.696.36-1.104 1.128-.384.768-.384 1.944v.696q0 .984.36 1.728.384.72 1.056 1.128.672.384 1.56.384t1.464-.384q.6-.384.888-.984h3.312a5.5 5.5 0 0 1-1.128 2.04 5.7 5.7 0 0 1-1.944 1.44q-1.152.528-2.568.528m7.63-.288V16.404h2.88l.312 2.232a4.7 4.7 0 0 1 1.08-1.344 5.2 5.2 0 0 1 1.512-.864 5.6 5.6 0 0 1 1.896-.312v3.432h-1.104q-.72 0-1.344.168-.6.168-1.056.552-.456.36-.696 1.008t-.24 1.632V28.5zm21.076.288q-2.52 0-4.344-1.08-1.8-1.104-2.784-3.048-.96-1.968-.96-4.536t.96-4.536q.984-1.968 2.784-3.072 1.824-1.104 4.344-1.104 3.048 0 4.992 1.512t2.424 4.272h-3.528q-.312-1.344-1.32-2.088-.984-.768-2.592-.768-1.488 0-2.568.72-1.056.696-1.632 1.992-.576 1.272-.576 3.072 0 1.776.576 3.072t1.632 1.992q1.08.696 2.568.696 1.608 0 2.592-.696.984-.72 1.296-1.992h3.552q-.48 2.616-2.424 4.104c-1.944 1.488-2.96 1.488-4.992 1.488m14.823 0q-1.728 0-3.12-.792a6.1 6.1 0 0 1-2.184-2.232q-.792-1.44-.792-3.288 0-1.896.792-3.312a5.8 5.8 0 0 1 2.208-2.232q1.392-.816 3.12-.816 1.752 0 3.12.816a5.64 5.64 0 0 1 2.184 2.232q.816 1.416.816 3.288t-.816 3.312a5.85 5.85 0 0 1-2.184 2.232q-1.392.792-3.144.792m0-2.808q.816 0 1.44-.384.648-.384 1.008-1.176.384-.792.384-1.968c0-1.176-.128-1.432-.384-1.944q-.36-.792-1.008-1.176a2.53 2.53 0 0 0-1.416-.408q-.768 0-1.416.408-.648.384-1.032 1.176-.36.768-.36 1.944c0 1.176.12 1.44.36 1.968q.384.792 1.008 1.176.648.384 1.416.384m12.449 2.808q-1.464 0-2.52-.6-1.032-.624-1.584-1.8-.552-1.2-.552-2.952v-7.032h3.24V23.1q0 1.464.6 2.208.624.744 1.896.744.816 0 1.44-.36.624-.384.984-1.08.384-.72.384-1.752v-6.456h3.216V28.5h-2.832l-.264-1.968a4.1 4.1 0 0 1-1.56 1.656q-1.032.6-2.448.6m9.277-.288V16.404h2.856l.24 1.968a4.36 4.36 0 0 1 1.56-1.632q1.032-.624 2.448-.624 1.512 0 2.544.624t1.56 1.824q.552 1.2.552 2.952V28.5h-3.216v-6.672q0-1.44-.624-2.208-.6-.768-1.872-.768-.816 0-1.464.384a2.65 2.65 0 0 0-.984 1.104q-.36.696-.36 1.704V28.5zm19.26 0q-1.272 0-2.232-.384a3.08 3.08 0 0 1-1.464-1.32q-.528-.936-.528-2.544v-5.136h-2.064v-2.712h2.064l.36-3.288h2.88v3.288h3.192v2.712h-3.192V24.3q0 .816.36 1.128t1.224.312h1.584v2.76zm9.438.288q-1.824 0-3.24-.768a5.73 5.73 0 0 1-2.184-2.184q-.768-1.416-.768-3.264 0-1.896.768-3.336a5.76 5.76 0 0 1 2.184-2.28q1.392-.84 3.24-.84 1.8 0 3.144.792a5.6 5.6 0 0 1 2.088 2.136q.744 1.344.744 3.048v.552q0 .288-.048.6h-9.816v-1.968h6.6q-.072-1.176-.84-1.848-.744-.672-1.872-.672-.816 0-1.512.384-.696.36-1.104 1.128-.384.768-.384 1.944v.696q0 .984.36 1.728.384.72 1.056 1.128.672.384 1.56.384t1.464-.384q.6-.384.888-.984h3.312a5.5 5.5 0 0 1-1.128 2.04 5.7 5.7 0 0 1-1.944 1.44q-1.152.528-2.568.528m7.63-.288V16.404h2.88l.312 2.232a4.7 4.7 0 0 1 1.08-1.344 5.2 5.2 0 0 1 1.512-.864 5.6 5.6 0 0 1 1.896-.312v3.432h-1.104q-.72 0-1.344.168-.6.168-1.056.552-.456.36-.696 1.008t-.24 1.632V28.5z"/></svg>